<svg data-bbox="0 -0.001 20.396 20.398" xmlns:xlink="http://www.w3.org/1999/xlink" xmlns="http://www.w3.org/2000/svg" viewBox="0 0 21 21" height="21" width="21" data-type="shape">
    <g>
        <defs>
            <path id="ce5e4ca2-f192-40db-9157-8d3488fcfd84" d="M0 0h20.395v20.397H0V0z"></path>
        </defs>
        <g fill-rule="evenodd">
            <mask fill="#ffffff" id="537b135b-5e4a-4272-956b-13d26ab095e7">
                <use xlink:href="#ce5e4ca2-f192-40db-9157-8d3488fcfd84"></use>
            </mask>
            <path mask="url(#537b135b-5e4a-4272-956b-13d26ab095e7)" d="M11.71 19.063a13.805 13.805 0 002.594-4.666h3.85a9.02 9.02 0 01-6.444 4.666zm-9.469-4.666h3.85a13.808 13.808 0 002.594 4.666 9.02 9.02 0 01-6.444-4.666zM8.683 1.333a13.803 13.803 0 00-2.595 4.669h-3.85a9.022 9.022 0 016.445-4.67zm9.474 4.669h-3.85a13.806 13.806 0 00-2.595-4.67 9.024 9.024 0 016.445 4.67zm-3.532 1.195h4.05a8.94 8.94 0 01.525 3 8.913 8.913 0 01-.527 3.005h-4.049c.222-.98.344-1.987.344-3.006 0-1.015-.122-2.02-.343-2.999zM7.363 6.002a12.568 12.568 0 012.834-4.55 12.555 12.555 0 012.836 4.55h-5.67zm-6.168 4.195c0-1.052.19-2.06.525-3h4.05a13.69 13.69 0 00-.344 2.999c0 1.019.124 2.025.346 3.006h-4.05a8.94 8.94 0 01-.527-3.005zm11.834 4.2a12.544 12.544 0 01-2.832 4.543 12.577 12.577 0 01-2.832-4.543h5.664zm-6.024-1.195a12.434 12.434 0 01-.384-3.006c0-1.018.14-2.022.383-2.999h6.388c.242.977.381 1.981.381 2.999 0 1.021-.14 2.028-.384 3.006H7.005zm13.39-3.005C20.395 4.581 15.83.011 10.216.001h-.006l-.013-.002-.012.002h-.006C4.564.01 0 4.58 0 10.197s4.567 10.188 10.181 10.198l.017.002.018-.002c5.615-.01 10.18-4.58 10.18-10.198z"></path>
        </g>
    </g>
</svg>