<svg data-bbox="0 -0.002 128.94 50.138" viewBox="0 -0.002 128.94 50.138" xmlns="http://www.w3.org/2000/svg" data-type="color" aria-labelledby="comp-jtfneezy-svgtitle"><g fill="#1d1d1b"><path d="M73.77.94c-2.55 1.34-3.55 3.6-3.55 9.84a10 10 0 013.22-1.94 13.54 13.54 0 003.32-1.77c2.16-1.6 2.46-3.64 2.46-7.07 0 0-3.49-.09-5.45.94zM58.62 2.4a9.77 9.77 0 00-2.7 4.77l-6.9 26.72-5.73-21.82a18.79 18.79 0 00-3.16-7.2c-2-2.47-6.16-2.63-6.6-2.63s-4.57.16-6.6 2.63a18.79 18.79 0 00-3.16 7.2l-5.74 21.82-6.9-26.72A9.71 9.71 0 008.44 2.4C5.06-.58 0 .07 0 .07l13.22 49.94s4.36.32 6.54-.8c2.86-1.46 4.22-2.58 6-9.38 1.46-6.06 5.81-23.86 6.22-25.12.2-.63.45-2.13 1.55-2.13s1.35 1.5 1.55 2.13c.4 1.27 4.72 19.06 6.27 25.12 1.73 6.8 3.1 7.92 6 9.38 2.18 1.12 6.54.8 6.54.8L67.06.07S62-.58 58.62 2.4zM79.22 8.22a8.22 8.22 0 01-2.71 2.33c-1.21.67-2.37 1.13-3.62 1.73-2.06 1-2.67 2.12-2.67 3.79v33.94s3.34.42 5.52-.69c2.8-1.43 3.45-2.81 3.47-9V10.07zM112.22 25.16L128.94.23s-7.07-1.21-10.57 2a39.36 39.36 0 00-4.75 5.71l-6.17 8.89a1.38 1.38 0 01-2.63 0l-6.17-8.89a40.1 40.1 0 00-4.75-5.71c-3.5-3.19-10.58-2-10.58-2l16.77 24.93-16.72 24.85s7.37.93 10.87-2.26a33.25 33.25 0 004.41-5.36l6.17-8.89a1.38 1.38 0 012.63 0l6.17 8.89a37.11 37.11 0 004.54 5.36c3.5 3.19 10.74 2.26 10.74 2.26z" data-color="1"/></g></svg>